#!OML:ASF F:\VICON\USERDATA\INSTALL\rory3\rory3.ASF
:FULLY-SPECIFIED
:DEGREES
18
root 0.2721175287690936 17.551003830240788 -16.660990325879137 3.2761033550390266 10.272781786321012 -0.4630974219122561
lfemur -30.634193587645363 1.930815684822005 -26.76499417661458
ltibia 40.01020422887427
lfoot -10.168492691438239 -19.72048925291863
ltoes 17.695475845185307
rfemur -1.3067983417686229 4.1241782289334195 30.99729654748681
rtibia 79.70039256982756
rfoot 21.146289378875114 -5.390568908181809
rtoes 6.0576536227194815
lowerback 16.408594025909583 1.054324260109204 2.9844849639253033
upperback -0.5077328592815042 2.019423967236918 0.3770136706443805
thorax -9.698656429448294 0.825782295365747 -1.777230471162253
lowerneck -19.25140335030635 -6.111610292410688 -2.15599930817726
upperneck 13.78950718174354 -8.489520522908144 4.2540024155627725
head 7.6788076069977 -3.742350406585694 0.7154098999980456
lclavicle -1.952177176984486e-15 1.1013516061790754e-15
lhumerus -62.851893072088316 -4.495065341723377 97.11879913625008
lradius 111.53400246824991
lwrist 41.199409358937565
lhand -19.18829208687888 6.808869738456155
lfingers 7.125020000000001
lthumb 7.123427912294922 36.66899948892235
rclavicle -1.952177176984486e-15 1.1013516061790754e-15
rhumerus -43.53350412174125 18.62949445841574 -105.93898598173202
rradius 108.0389988795758
rwrist -12.308007740065747
rhand -30.76539358584722 48.41129287671289
rfingers 7.125020000000001
rthumb -4.056623574410138 18.47010153887972
19
root 0.2825019272380257 17.396706538389914 -15.744790727602592 3.162053969211055 10.492781324605398 0.8220422045894586
lfemur -28.61389451474559 0.4945984439354276 -27.92179256764665
ltibia 43.48370297678847
lfoot -15.344289333170966 -15.083095814525453
ltoes 14.444878855691666
rfemur -6.631165938996007 1.5241536638823039 27.490201532119777
rtibia 88.96608907411375
rfoot 19.277490605392046 -6.060317612024026
rtoes 4.971344607327865
lowerback 17.21779063392589 0.7944612705815892 1.6233988317818548
upperback -0.3027603753785999 1.3819569470660098 -0.03884874808248395
thorax -9.982603840936786 0.5749391027814554 -1.31683270162555
lowerneck -19.789199495602134 -6.0954204070063565 -2.151509417771975
upperneck 13.838706904821505 -8.484410547503465 4.365461465982735
head 7.791105553865791 -3.717470680154401 0.7367022666898309
lclavicle -1.952177142707838e-15 1.1013516100608312e-15
lhumerus -59.73249527772107 -5.164863823063614 98.0473957202624
lradius 110.69300417697187
lwrist 43.04340455341169
lhand -19.665689261054865 7.247077698621336
lfingers 7.125020000000001
lthumb 6.6625807388735385 37.12229739168344
rclavicle -1.952177142707838e-15 1.1013516100608312e-15
rhumerus -44.40940330621491 18.03459551919632 -106.12098532870846
rradius 104.6660034627464
rwrist -10.01921193377574
rhand -31.59429233844217 51.27499270420196
rfingers 7.125020000000001
rthumb -4.8569823239787215 21.35059936884547
20
root 0.3177538852181627 17.233409404499778 -14.859691115689728 3.9642996490049125 9.607783181961326 2.568067262637743
lfemur -26.058595687353304 -0.5047879402995852 -29.977289708696482
ltibia 45.59540221558809
lfoot -20.568685943370035 -8.209735539878345
ltoes 7.789475019524357
rfemur -13.60260279293648 -0.8531763666772632 22.737708286836806
rtibia 97.8345857282535
rfoot 17.895191512612868 -5.454018785387913
rtoes 11.90858831955121
lowerback 17.175690810399583 0.8107831443047513 -0.18429903120597202
upperback -0.2766626957352384 0.974337852474756 -0.6632178714935759
thorax -9.961294035200496 0.4547404480345907 -0.8640468952115863
lowerneck -20.17609672248004 -5.9528714160003595 -2.1275800018703106
upperneck 13.588008315885599 -8.369561100296448 4.854397300473456
head 7.792775523333908 -3.6103318582151385 0.9013633691023364
lclavicle -1.9521771514571257e-15 1.1013516094138722e-15
lhumerus -55.80759805289837 -5.8871221854595515 98.55609384893681
lradius 109.59400640989153
lwrist 45.943796994871946
lhand -17.667401089383567 9.025469420302167
lfingers 7.125020000000001
lthumb 8.591308909134467 38.83068948759571
rclavicle -1.9521771514571257e-15 1.1013516094138722e-15
rhumerus -45.21240255856377 17.429996597273217 -106.15098522106719
rradius 101.68000752006853
rwrist -9.291873266462314
rhand -30.8717934257267 51.616692683617615
rfingers 7.125020000000001
rthumb -4.159323413958199 21.67759912249893
21
root 0.2256222431994928 17.22425924734979 -12.074983406083923 3.3529261060871787 5.017438067744182 2.2969386256253816
lfemur -23.098521701607886 0.22446570007501498 -27.628078039200254
ltibia 46.17119381136208
lfoot -26.388930184882582 -1.5538428527157127
ltoes 0.12539035839992962
rfemur -16.81152305025059 -2.1408787256677835 20.795409288296234
rtibia 106.3596948624531
rfoot 13.629933176408331 -5.991618604567759
rtoes 8.891053551489838
lowerback 16.96117448358929 1.0063333971075055 -1.2856558443999035
upperback -0.1733625078759553 1.2884500868609128 -0.7535991493845988
thorax -9.170854258642944 0.7371163779665715 -0.19237674187617748
lowerneck -19.651423658248266 -5.901548977620843 -1.8732971975174157
upperneck 13.096629632516652 -8.690401018973837 4.814550450807479
head 7.6824239323779135 -3.8435330477640415 0.8247718769588045
lclavicle -1.9521729781454414e-15 1.1013548979581031e-15
lhumerus -52.79260800626614 -8.138641267172492 98.35194854512937
lradius 107.46259026577131
lwrist 45.973496666112176
lhand -19.358193751918307 7.686298239776955
lfingers 7.125020000000001
lthumb 7.157977565816113 37.75940074519535
rclavicle -1.9521765333698134e-15 1.1013521047784861e-15
rhumerus -45.87334425194646 14.969378357469823 -105.23206336095686
rradius 101.28685075471913
rwrist -9.280999696636759
rhand -27.688923749138553 15.019637595020853
rfingers 7.125020000000001
rthumb 0.6045358667649193 32.01039136551849
